<mxfile host="app.diagrams.net" modified="2022-11-30T10:20:28.834Z" agent="5.0 (Windows NT 10.0; Win64; x64) AppleWebKit/537.36 (KHTML, like Gecko) Chrome/107.0.0.0 Safari/537.36 Edg/107.0.1418.26" etag="VcMWn-8Wj1xCQZeB36Bl" version="20.5.3" type="github">
  <diagram id="prtHgNgQTEPvFCAcTncT" name="Page-1">
    <mxGraphModel dx="1028" dy="568" grid="1" gridSize="10" guides="0" tooltips="1" connect="1" arrows="1" fold="1" page="1" pageScale="1" pageWidth="827" pageHeight="1169" math="0" shadow="0">
      <root>
        <mxCell id="0" />
        <mxCell id="1" parent="0" />
        <mxCell id="UqwvE8bPKr_NYRjwUXq_-3" value="" style="swimlane;html=1;startSize=20;horizontal=1;containerType=tree;glass=0;" vertex="1" parent="1">
          <mxGeometry x="59" y="80" width="710" height="740" as="geometry" />
        </mxCell>
        <mxCell id="UqwvE8bPKr_NYRjwUXq_-10" value="" style="rounded=0;whiteSpace=wrap;html=1;" vertex="1" parent="UqwvE8bPKr_NYRjwUXq_-3">
          <mxGeometry x="20" y="385" width="669" height="120" as="geometry" />
        </mxCell>
        <mxCell id="UqwvE8bPKr_NYRjwUXq_-1" value="APP" style="rounded=0;whiteSpace=wrap;html=1;align=left;" vertex="1" parent="UqwvE8bPKr_NYRjwUXq_-3">
          <mxGeometry x="20" y="50" width="669.5" height="120" as="geometry" />
        </mxCell>
        <mxCell id="UqwvE8bPKr_NYRjwUXq_-2" value="BSP" style="rounded=0;whiteSpace=wrap;html=1;align=left;" vertex="1" parent="UqwvE8bPKr_NYRjwUXq_-3">
          <mxGeometry x="20" y="210" width="669" height="120" as="geometry" />
        </mxCell>
        <mxCell id="UqwvE8bPKr_NYRjwUXq_-12" value="Thirdparty" style="rounded=0;whiteSpace=wrap;html=1;align=left;" vertex="1" parent="UqwvE8bPKr_NYRjwUXq_-3">
          <mxGeometry x="20" y="550" width="669" height="120" as="geometry" />
        </mxCell>
        <mxCell id="UqwvE8bPKr_NYRjwUXq_-13" value="&lt;div style=&quot;text-align: left;&quot;&gt;&amp;lt;APP&amp;gt;&lt;/div&gt;&lt;div style=&quot;text-align: left;&quot;&gt;communicate&lt;/div&gt;&lt;div style=&quot;text-align: left;&quot;&gt;&lt;br&gt;&lt;/div&gt;" style="rounded=1;whiteSpace=wrap;html=1;fillColor=#f8cecc;strokeColor=#b85450;" vertex="1" parent="UqwvE8bPKr_NYRjwUXq_-3">
          <mxGeometry x="61" y="90" width="120" height="60" as="geometry" />
        </mxCell>
        <mxCell id="UqwvE8bPKr_NYRjwUXq_-14" value="&lt;br&gt;&lt;div style=&quot;text-align: left;&quot;&gt;&amp;lt;APP&amp;gt;&lt;/div&gt;&lt;div style=&quot;text-align: left;&quot;&gt;CupDrop&lt;/div&gt;&lt;div style=&quot;text-align: left;&quot;&gt;&lt;br&gt;&lt;br&gt;&lt;/div&gt;" style="rounded=1;whiteSpace=wrap;html=1;fillColor=#f8cecc;strokeColor=#b85450;" vertex="1" parent="UqwvE8bPKr_NYRjwUXq_-3">
          <mxGeometry x="221" y="90" width="120" height="60" as="geometry" />
        </mxCell>
        <mxCell id="UqwvE8bPKr_NYRjwUXq_-15" value="&lt;div style=&quot;text-align: left;&quot;&gt;&amp;lt;APP&amp;gt;&lt;/div&gt;&lt;div style=&quot;text-align: left;&quot;&gt;ParaModule&lt;/div&gt;" style="rounded=1;whiteSpace=wrap;html=1;fillColor=#f8cecc;strokeColor=#b85450;" vertex="1" parent="UqwvE8bPKr_NYRjwUXq_-3">
          <mxGeometry x="391" y="90" width="120" height="60" as="geometry" />
        </mxCell>
        <mxCell id="UqwvE8bPKr_NYRjwUXq_-16" value="&lt;div style=&quot;text-align: left;&quot;&gt;&amp;lt;APP&amp;gt;&lt;/div&gt;&lt;div style=&quot;text-align: left;&quot;&gt;........&lt;/div&gt;" style="rounded=1;whiteSpace=wrap;html=1;fillColor=#f8cecc;strokeColor=#b85450;" vertex="1" parent="UqwvE8bPKr_NYRjwUXq_-3">
          <mxGeometry x="551" y="90" width="120" height="60" as="geometry" />
        </mxCell>
        <mxCell id="UqwvE8bPKr_NYRjwUXq_-17" value="&amp;lt;BSP&amp;gt;&lt;br&gt;ADC" style="rounded=1;whiteSpace=wrap;html=1;fillColor=#d5e8d4;strokeColor=#82b366;" vertex="1" parent="UqwvE8bPKr_NYRjwUXq_-3">
          <mxGeometry x="61" y="250" width="120" height="60" as="geometry" />
        </mxCell>
        <mxCell id="UqwvE8bPKr_NYRjwUXq_-18" value="&amp;lt;BSP&amp;gt;&lt;br&gt;Flash" style="rounded=1;whiteSpace=wrap;html=1;fillColor=#d5e8d4;strokeColor=#82b366;" vertex="1" parent="UqwvE8bPKr_NYRjwUXq_-3">
          <mxGeometry x="221" y="250" width="120" height="60" as="geometry" />
        </mxCell>
        <mxCell id="UqwvE8bPKr_NYRjwUXq_-19" value="&amp;lt;BSP&amp;gt;&lt;br&gt;I2C" style="rounded=1;whiteSpace=wrap;html=1;fillColor=#d5e8d4;strokeColor=#82b366;" vertex="1" parent="UqwvE8bPKr_NYRjwUXq_-3">
          <mxGeometry x="391" y="250" width="120" height="60" as="geometry" />
        </mxCell>
        <mxCell id="UqwvE8bPKr_NYRjwUXq_-20" value="&amp;lt;BSP&amp;gt;&lt;br&gt;BasicTim" style="rounded=1;whiteSpace=wrap;html=1;fillColor=#d5e8d4;strokeColor=#82b366;" vertex="1" parent="UqwvE8bPKr_NYRjwUXq_-3">
          <mxGeometry x="551" y="250" width="120" height="60" as="geometry" />
        </mxCell>
        <mxCell id="UqwvE8bPKr_NYRjwUXq_-25" value="&amp;lt;Thirdparty&amp;gt;&lt;br&gt;DataSave" style="rounded=1;whiteSpace=wrap;html=1;fillColor=#dae8fc;strokeColor=#6c8ebf;" vertex="1" parent="UqwvE8bPKr_NYRjwUXq_-3">
          <mxGeometry x="81" y="580" width="121" height="60" as="geometry" />
        </mxCell>
        <mxCell id="UqwvE8bPKr_NYRjwUXq_-26" value="&lt;br&gt;&lt;span style=&quot;color: rgb(0, 0, 0); font-family: Helvetica; font-size: 12px; font-style: normal; font-variant-ligatures: normal; font-variant-caps: normal; font-weight: 400; letter-spacing: normal; orphans: 2; text-align: center; text-indent: 0px; text-transform: none; widows: 2; word-spacing: 0px; -webkit-text-stroke-width: 0px; background-color: rgb(248, 249, 250); text-decoration-thickness: initial; text-decoration-style: initial; text-decoration-color: initial; float: none; display: inline !important;&quot;&gt;&amp;lt;Thirdparty&amp;gt;&lt;/span&gt;&lt;br&gt;ScCom" style="rounded=1;whiteSpace=wrap;html=1;fillColor=#dae8fc;strokeColor=#6c8ebf;" vertex="1" parent="UqwvE8bPKr_NYRjwUXq_-3">
          <mxGeometry x="221" y="580" width="120" height="60" as="geometry" />
        </mxCell>
        <mxCell id="UqwvE8bPKr_NYRjwUXq_-27" value="&lt;br&gt;&lt;span style=&quot;color: rgb(0, 0, 0); font-family: Helvetica; font-size: 12px; font-style: normal; font-variant-ligatures: normal; font-variant-caps: normal; font-weight: 400; letter-spacing: normal; orphans: 2; text-align: center; text-indent: 0px; text-transform: none; widows: 2; word-spacing: 0px; -webkit-text-stroke-width: 0px; background-color: rgb(248, 249, 250); text-decoration-thickness: initial; text-decoration-style: initial; text-decoration-color: initial; float: none; display: inline !important;&quot;&gt;&amp;lt;Thirdparty&amp;gt;&lt;/span&gt;&lt;br&gt;TM1628" style="rounded=1;whiteSpace=wrap;html=1;fillColor=#dae8fc;strokeColor=#6c8ebf;" vertex="1" parent="UqwvE8bPKr_NYRjwUXq_-3">
          <mxGeometry x="391" y="580" width="120" height="60" as="geometry" />
        </mxCell>
        <mxCell id="UqwvE8bPKr_NYRjwUXq_-28" value="&lt;br&gt;&lt;span style=&quot;color: rgb(0, 0, 0); font-family: Helvetica; font-size: 12px; font-style: normal; font-variant-ligatures: normal; font-variant-caps: normal; font-weight: 400; letter-spacing: normal; orphans: 2; text-align: center; text-indent: 0px; text-transform: none; widows: 2; word-spacing: 0px; -webkit-text-stroke-width: 0px; background-color: rgb(248, 249, 250); text-decoration-thickness: initial; text-decoration-style: initial; text-decoration-color: initial; float: none; display: inline !important;&quot;&gt;&amp;lt;Thirdparty&amp;gt;&lt;/span&gt;&lt;br&gt;........" style="rounded=1;whiteSpace=wrap;html=1;fillColor=#dae8fc;strokeColor=#6c8ebf;" vertex="1" parent="UqwvE8bPKr_NYRjwUXq_-3">
          <mxGeometry x="541" y="580" width="120" height="60" as="geometry" />
        </mxCell>
        <mxCell id="UqwvE8bPKr_NYRjwUXq_-11" value="Machine" style="rounded=0;whiteSpace=wrap;html=1;align=left;" vertex="1" parent="1">
          <mxGeometry x="79" y="465" width="669" height="120" as="geometry" />
        </mxCell>
        <mxCell id="UqwvE8bPKr_NYRjwUXq_-21" value="&amp;lt;Machine&amp;gt;&lt;br&gt;Ingredient" style="rounded=1;whiteSpace=wrap;html=1;fillColor=#fff2cc;strokeColor=#d6b656;" vertex="1" parent="1">
          <mxGeometry x="130" y="500" width="120" height="60" as="geometry" />
        </mxCell>
        <mxCell id="UqwvE8bPKr_NYRjwUXq_-22" value="&amp;lt;Machine&amp;gt;&lt;br&gt;Machine Run" style="rounded=1;whiteSpace=wrap;html=1;fillColor=#fff2cc;strokeColor=#d6b656;" vertex="1" parent="1">
          <mxGeometry x="280" y="500" width="120" height="60" as="geometry" />
        </mxCell>
        <mxCell id="UqwvE8bPKr_NYRjwUXq_-23" value="&amp;lt;Machine&amp;gt;&lt;br&gt;TempCtrl" style="rounded=1;whiteSpace=wrap;html=1;fillColor=#fff2cc;strokeColor=#d6b656;" vertex="1" parent="1">
          <mxGeometry x="450" y="500" width="120" height="60" as="geometry" />
        </mxCell>
        <mxCell id="UqwvE8bPKr_NYRjwUXq_-24" value="&amp;lt;Machine&amp;gt;&lt;br&gt;........." style="rounded=1;whiteSpace=wrap;html=1;fillColor=#fff2cc;strokeColor=#d6b656;" vertex="1" parent="1">
          <mxGeometry x="600" y="500" width="120" height="60" as="geometry" />
        </mxCell>
      </root>
    </mxGraphModel>
  </diagram>
</mxfile>
